<svg width="42" height="63" viewBox="0 0 42 63" fill="none" xmlns="http://www.w3.org/2000/svg">
<path fill-rule="evenodd" clip-rule="evenodd" d="M21.0413 31.4981C21.0413 25.8098 25.6526 21.1985 31.3409 21.1985C37.0292 21.1985 41.6405 25.8098 41.6405 31.4981C41.6405 37.1864 37.0292 41.7977 31.3409 41.7977C25.6526 41.7977 21.0413 37.1864 21.0413 31.4981Z" fill="#1ABCFE"/>
<path fill-rule="evenodd" clip-rule="evenodd" d="M0.441956 52.0974C0.441956 46.409 5.05326 41.7977 10.7416 41.7977H21.0412V52.0974C21.0412 57.7857 16.4299 62.397 10.7416 62.397C5.05326 62.397 0.441956 57.7857 0.441956 52.0974Z" fill="#0ACF83"/>
<path fill-rule="evenodd" clip-rule="evenodd" d="M21.0413 0.599243V21.1985H31.3409C37.0292 21.1985 41.6405 16.5872 41.6405 10.8989C41.6405 5.21054 37.0292 0.599243 31.3409 0.599243H21.0413Z" fill="#FF7262"/>
<path fill-rule="evenodd" clip-rule="evenodd" d="M0.441956 10.8989C0.441956 16.5872 5.05326 21.1985 10.7416 21.1985H21.0412V0.599243H10.7416C5.05326 0.599243 0.441956 5.21054 0.441956 10.8989Z" fill="#F24E1E"/>
<path fill-rule="evenodd" clip-rule="evenodd" d="M0.441956 31.4981C0.441956 37.1864 5.05326 41.7977 10.7416 41.7977H21.0412V21.1985H10.7416C5.05326 21.1985 0.441956 25.8098 0.441956 31.4981Z" fill="#A259FF"/>
</svg>
