<svg width="51" height="50" viewBox="0 0 51 50" fill="none" xmlns="http://www.w3.org/2000/svg">
<rect x="0.543091" y="0.00378418" width="50" height="50" fill="#FF26BE"/>
<rect x="2.32892" y="1.78955" width="46.4286" height="46.4286" fill="#2E001F"/>
<path d="M28.095 39.0208L21.8298 26.4968L27.8133 13.9592C27.926 13.7696 27.8584 13.6274 27.678 13.6274H24.0483C23.8309 13.6274 23.7383 13.7743 23.6425 13.9355L19.4942 23.4157L15.2332 13.9118C15.143 13.6985 15.0528 13.6511 14.8274 13.6511H10.9496C10.8144 13.6511 10.6791 13.7933 10.8144 13.9829L16.7888 26.4968L10.555 39.0445C10.4422 39.1867 10.4648 39.3763 10.6902 39.3763H14.4102C14.5905 39.3763 14.7032 39.3052 14.816 39.1156L19.2011 29.2935L23.5634 39.0919C23.6761 39.3289 23.7889 39.3763 24.0369 39.3763H27.9597C28.1401 39.3763 28.2077 39.2104 28.095 39.0208Z" fill="#FF26BE"/>
<path fill-rule="evenodd" clip-rule="evenodd" d="M38.2966 20.1208C32.7506 20.1208 29.2561 24.4343 29.2561 29.9565C29.2561 36.4031 32.7069 39.4001 37.5991 39.3764C39.4929 39.3764 41.5206 39.1286 43.4144 38.1806C43.5496 38.1095 43.5947 38.0621 43.5947 37.9199C43.482 37.043 43.482 36.2371 43.482 35.5972V13.8402C43.482 13.7217 43.4369 13.6506 43.2565 13.6506H39.6944C39.5817 13.6506 39.469 13.7454 39.469 13.8876V20.1682C39.0181 20.1208 38.7701 20.1208 38.2966 20.1208ZM38.1614 23.6522C38.7025 23.6522 39.1534 23.747 39.469 23.8892V35.6209C39.0406 35.8105 38.4545 35.8816 37.9134 35.8816C35.3658 35.8816 33.3367 34.1278 33.3367 29.7669C33.3367 25.9511 35.3207 23.6522 38.1614 23.6522Z" fill="#FF26BE"/>
</svg>
