<svg width="63" height="63" viewBox="0 0 63 63" fill="none" xmlns="http://www.w3.org/2000/svg">
<path d="M31.3748 0.337036C14.312 0.337036 0.475708 14.5208 0.475708 32.0182C0.475708 46.0157 9.32925 57.8912 21.6064 62.0803C23.1507 62.3736 23.7176 61.3931 23.7176 60.5563C23.7176 59.8008 23.6889 57.3052 23.6756 54.6579C15.0795 56.5744 13.2656 50.92 13.2656 50.92C11.86 47.2581 9.83479 46.2844 9.83479 46.2844C7.03131 44.3181 10.0461 44.3585 10.0461 44.3585C13.1489 44.5819 14.7827 47.6232 14.7827 47.6232C17.5386 52.4666 22.0112 51.0663 23.7744 50.2568C24.0517 48.2092 24.8525 46.8116 25.7362 46.0205C18.873 45.2194 11.6584 42.5028 11.6584 30.3635C11.6584 26.9046 12.8654 24.0785 14.8421 21.8598C14.5212 21.0619 13.4636 17.8396 15.1414 13.4758C15.1414 13.4758 17.7361 12.6243 23.6408 16.7232C26.1056 16.0213 28.7489 15.6692 31.3748 15.6572C34.0008 15.6692 36.6461 16.0213 39.1155 16.7232C45.0131 12.6243 47.6042 13.4758 47.6042 13.4758C49.2861 17.8396 48.2279 21.0619 47.9071 21.8598C49.8883 24.0785 51.0872 26.9046 51.0872 30.3635C51.0872 42.5317 43.8587 45.211 36.9782 45.9953C38.0865 46.9784 39.074 48.9064 39.074 51.8622C39.074 56.1012 39.0382 59.5128 39.0382 60.5563C39.0382 61.3994 39.5944 62.3872 41.1607 62.0761C53.4312 57.8823 62.2735 46.011 62.2735 32.0182C62.2735 14.5208 48.4393 0.337036 31.3748 0.337036Z" fill="white"/>
</svg>
