<svg width="63" height="63" viewBox="0 0 63 63" fill="none" xmlns="http://www.w3.org/2000/svg">
<circle cx="31.3746" cy="31.824" r="30.8989" fill="#FF3366"/>
<path d="M21.3221 20.8945C23.4404 20.8945 25.1577 19.1588 25.1577 17.0178C25.1577 14.8767 23.4404 13.1411 21.3221 13.1411C19.2038 13.1411 17.4865 14.8767 17.4865 17.0178C17.4865 19.1588 19.2038 20.8945 21.3221 20.8945Z" fill="white"/>
<path d="M13.3085 24.2174L11.9729 29.1672H16.3564C15.4774 32.7785 13.6373 40.375 13.3085 41.8704C12.8975 43.7395 12.8289 49.07 18.3769 49.07C22.2492 49.07 24.7191 46.5416 26.0968 44.4771L25.0549 48.6892H31.2877L34.5411 35.3795C35.0034 33.165 36.0916 28.8902 40.0205 28.8902C44.6931 28.8902 42.9789 34.4828 42.1388 37.2235C42.1046 37.3352 42.0718 37.4421 42.041 37.5436C41.4109 39.6205 40.7397 42.0434 40.7397 43.7049C40.7397 45.574 41.5958 49.07 46.3903 49.07C51.1847 49.07 53.2281 44.2702 53.6505 41.8704L51.219 40.8666C51.0478 42.1473 49.5067 44.9163 48.0683 44.9163C46.0993 44.9163 47.0884 41.561 48.144 37.9802C48.6122 36.3919 49.0934 34.7593 49.3354 33.3554C49.9473 29.8059 49.3354 23.7674 43.2396 23.7674C39.4536 23.7674 36.4807 27.1773 35.0664 29.5445L36.2534 24.2174H26.7672L25.4659 29.1672H29.8836C29.8836 29.1672 27.2621 39.9656 27.0926 40.3041C25.3118 43.8606 22.6184 45.0545 20.6029 44.9163C18.9865 44.8056 19.176 42.8395 19.4728 41.8704L23.8563 24.2174H13.3085Z" fill="white"/>
</svg>
