<?xml version="1.0"?>
<svg width="112" height="112" xmlns="http://www.w3.org/2000/svg" xmlns:svg="http://www.w3.org/2000/svg">
 <defs>
  <clipPath id="clip0_974_1091">
   <rect fill="white" height="112" id="svg_1" rx="56" width="112"/>
  </clipPath>
 </defs>
 <g class="layer">
  <title>Layer 1</title>
  <g clip-path="url(#clip0_974_1091)" id="svg_2">
   <rect fill="#303030" height="103" id="svg_3" rx="56" width="103.88" x="4.25" y="8.75"/>
   <path d="m55.94,-2.21c-30.89,0 -55.94,25.7 -55.94,57.41c0,25.37 16.03,46.9 38.26,54.49c2.8,0.53 3.82,-1.25 3.82,-2.76c0,-1.37 -0.05,-5.9 -0.07,-10.69c-15.56,3.47 -18.85,-6.78 -18.85,-6.78c-2.55,-6.64 -6.21,-8.4 -6.21,-8.4c-5.07,-3.56 0.38,-3.49 0.38,-3.49c5.62,0.4 8.58,5.92 8.58,5.92c4.98,8.77 13.09,6.24 16.28,4.77c0.5,-3.71 1.95,-6.24 3.55,-7.68c-12.43,-1.45 -25.48,-6.37 -25.48,-28.37c0,-6.27 2.18,-11.4 5.76,-15.42c-0.58,-1.44 -2.5,-7.28 0.54,-15.19c0,0 4.69,-1.54 15.38,5.88c4.47,-1.27 9.25,-1.91 14,-1.93c4.75,0.02 9.54,0.66 14.01,1.93c10.68,-7.42 15.36,-5.88 15.36,-5.88c3.05,7.91 1.13,13.75 0.55,15.19c3.59,4.02 5.76,9.15 5.76,15.42c0,22.05 -13.09,26.9 -25.54,28.33c2,1.78 3.79,5.27 3.79,10.63c0,7.68 -0.06,13.87 -0.06,15.76c0,1.52 1.01,3.31 3.85,2.75c22.21,-7.6 38.22,-29.12 38.22,-54.48c0,-31.71 -25.04,-57.41 -55.94,-57.41z" fill="white" id="svg_4"/>
   <path d="m21.36,79.83c-0.13,0.28 -0.56,0.37 -0.96,0.18c-0.41,-0.19 -0.64,-0.58 -0.5,-0.86c0.12,-0.29 0.55,-0.37 0.96,-0.18c0.4,0.19 0.64,0.58 0.5,0.86z" fill="#161514" id="svg_5"/>
   <path d="m23.61,82.41c-0.27,0.25 -0.79,0.13 -1.14,-0.26c-0.37,-0.4 -0.44,-0.93 -0.17,-1.18c0.28,-0.26 0.78,-0.14 1.15,0.26c0.37,0.4 0.44,0.93 0.16,1.18z" fill="#161514" id="svg_6"/>
   <path d="m25.81,85.67c-0.34,0.25 -0.9,0.02 -1.24,-0.49c-0.35,-0.5 -0.35,-1.11 0,-1.35c0.35,-0.24 0.9,-0.03 1.25,0.48c0.34,0.51 0.34,1.12 -0.01,1.36z" fill="#161514" id="svg_7"/>
   <path d="m28.83,88.84c-0.3,0.34 -0.96,0.25 -1.43,-0.22c-0.49,-0.46 -0.63,-1.11 -0.32,-1.45c0.31,-0.35 0.96,-0.25 1.45,0.22c0.48,0.45 0.63,1.11 0.3,1.45z" fill="#161514" id="svg_8"/>
   <path d="m33.12,90.8c-0.14,0.45 -0.77,0.65 -1.4,0.46c-0.63,-0.19 -1.04,-0.71 -0.92,-1.16c0.13,-0.45 0.77,-0.66 1.4,-0.46c0.63,0.19 1.05,0.71 0.92,1.16z" fill="#161514" id="svg_9"/>
   <path d="m37.56,91.03c0.02,0.46 -0.52,0.85 -1.18,0.86c-0.67,0.02 -1.21,-0.36 -1.22,-0.82c0,-0.48 0.53,-0.86 1.19,-0.87c0.67,-0.02 1.21,0.36 1.21,0.83z" fill="#161514" id="svg_10"/>
   <path d="m41.81,90.28c0.08,0.46 -0.38,0.93 -1.04,1.05c-0.65,0.12 -1.25,-0.16 -1.33,-0.62c-0.09,-0.46 0.38,-0.93 1.03,-1.06c0.66,-0.11 1.25,0.16 1.34,0.63z" fill="#161514" id="svg_11"/>
  </g>
 </g>
</svg>