<svg width="100" height="100" viewBox="0 0 100 100" fill="none" xmlns="http://www.w3.org/2000/svg">
<circle cx="50" cy="50" r="50" fill="#FF3366"/>
<path d="M33.4264 31.6406C36.8782 31.6406 39.6764 28.8424 39.6764 25.3906C39.6764 21.9388 36.8782 19.1406 33.4264 19.1406C29.9746 19.1406 27.1764 21.9388 27.1764 25.3906C27.1764 28.8424 29.9746 31.6406 33.4264 31.6406Z" fill="white"/>
<path d="M20.3684 36.9978L18.192 44.9777H25.3349C23.9026 50.7999 20.9041 63.0469 20.3684 65.4576C19.6987 68.471 19.5869 77.0647 28.6273 77.0647C34.9371 77.0647 38.9618 72.9885 41.2067 69.6601L39.509 76.4509H49.6652L54.9666 54.9931C55.7199 51.423 57.4931 44.5312 63.8951 44.5312C71.5091 44.5312 68.7158 53.5475 67.3469 57.966C67.2912 58.146 67.2378 58.3183 67.1876 58.4821C66.1608 61.8304 65.067 65.7366 65.067 68.4152C65.067 71.4286 66.4621 77.0647 74.2746 77.0647C82.0871 77.0647 85.4167 69.3266 86.105 65.4576L82.1429 63.8393C81.8639 65.904 79.3527 70.3683 77.009 70.3683C73.8004 70.3683 75.4122 64.9589 77.1322 59.1859C77.8951 56.6253 78.6794 53.9932 79.0737 51.7299C80.0708 46.0075 79.0737 36.2723 69.1407 36.2723C62.9714 36.2723 58.127 41.7696 55.8225 45.586L57.7568 36.9978H42.2992L40.1786 44.9777H47.3773C47.3773 44.9777 43.1055 62.3868 42.8293 62.9325C39.9275 68.6663 35.5386 70.591 32.2545 70.3683C29.6206 70.1897 29.9294 67.0201 30.413 65.4576L37.5559 36.9978H20.3684Z" fill="white"/>
</svg>
