<svg width="67" height="100" viewBox="0 0 67 100" fill="none" xmlns="http://www.w3.org/2000/svg">
<path fill-rule="evenodd" clip-rule="evenodd" d="M33.3329 50C33.3329 40.7953 40.7948 33.3334 49.9995 33.3334C59.2043 33.3334 66.6662 40.7953 66.6662 50C66.6662 59.2048 59.2043 66.6667 49.9995 66.6667C40.7948 66.6667 33.3329 59.2048 33.3329 50Z" fill="#1ABCFE"/>
<path fill-rule="evenodd" clip-rule="evenodd" d="M0 83.3334C0 74.1287 7.46193 66.6667 16.6667 66.6667H33.3334V83.3334C33.3334 92.5382 25.8714 100 16.6667 100C7.46193 100 0 92.5382 0 83.3334Z" fill="#0ACF83"/>
<path fill-rule="evenodd" clip-rule="evenodd" d="M33.3329 0V33.3334H49.9995C59.2043 33.3334 66.6662 25.8714 66.6662 16.6667C66.6662 7.46193 59.2043 0 49.9995 0H33.3329Z" fill="#FF7262"/>
<path fill-rule="evenodd" clip-rule="evenodd" d="M0 16.6667C0 25.8714 7.46193 33.3334 16.6667 33.3334H33.3334V0H16.6667C7.46193 0 0 7.46193 0 16.6667Z" fill="#F24E1E"/>
<path fill-rule="evenodd" clip-rule="evenodd" d="M0 50C0 59.2048 7.46193 66.6667 16.6667 66.6667H33.3334V33.3334H16.6667C7.46193 33.3334 0 40.7953 0 50Z" fill="#A259FF"/>
</svg>
