<svg width="100" height="100" viewBox="0 0 100 100" fill="none" xmlns="http://www.w3.org/2000/svg">
<rect width="100" height="100" fill="#FF26BE"/>
<rect x="3.57135" y="3.57141" width="92.8571" height="92.8571" fill="#2E001F"/>
<path d="M52.0451 74.3093L39.8794 49.99L51.4981 25.6443C51.717 25.2761 51.5857 25 51.2354 25H44.1872C43.7651 25 43.5852 25.2852 43.3992 25.5983L35.344 44.0071L27.0699 25.5523C26.8948 25.1381 26.7196 25.046 26.2819 25.046H18.752C18.4893 25.046 18.2267 25.3222 18.4893 25.6903L30.0906 49.99L17.9856 74.3554C17.7667 74.6315 17.8105 74.9997 18.2483 74.9997H25.4717C25.8219 74.9997 26.0408 74.8616 26.2597 74.4934L34.7748 55.4206L43.2456 74.4474C43.4645 74.9076 43.6834 74.9997 44.165 74.9997H51.7824C52.1326 74.9997 52.264 74.6775 52.0451 74.3093Z" fill="#FF26BE"/>
<path fill-rule="evenodd" clip-rule="evenodd" d="M71.8549 37.6089C61.0854 37.6089 54.2998 45.9849 54.2998 56.7081C54.2998 69.2261 61.0006 75.0458 70.5004 74.9997C74.1778 74.9997 78.1152 74.5186 81.7926 72.6777C82.0552 72.5397 82.1428 72.4476 82.1428 72.1715C81.9239 70.4687 81.9239 68.9039 81.9239 67.6613V25.4131C81.9239 25.183 81.8363 25.0449 81.4861 25.0449H74.5691C74.3502 25.0449 74.1314 25.229 74.1314 25.5051V37.701C73.2558 37.6089 72.7742 37.6089 71.8549 37.6089ZM71.5922 44.4662C72.6429 44.4662 73.5185 44.6503 74.1314 44.9264V67.7074C73.2996 68.0755 72.1613 68.2136 71.1107 68.2136C66.1637 68.2136 62.2237 64.808 62.2237 56.3399C62.2237 48.9304 66.0762 44.4662 71.5922 44.4662Z" fill="#FF26BE"/>
</svg>
